<mxfile host="app.diagrams.net" modified="2023-01-29T11:54:40.351Z" agent="5.0 (Macintosh; Intel Mac OS X 10_15_7) AppleWebKit/537.36 (KHTML, like Gecko) Chrome/109.0.0.0 Safari/537.36" etag="PPqVQ91KFLk7EGPUV0IO" version="20.8.13" type="github">
  <diagram name="Page-1" id="QL6QWZ67UL1GjgJnXiyx">
    <mxGraphModel dx="819" dy="583" grid="1" gridSize="10" guides="1" tooltips="1" connect="1" arrows="1" fold="1" page="1" pageScale="1" pageWidth="850" pageHeight="1100" math="0" shadow="0">
      <root>
        <mxCell id="0" />
        <mxCell id="1" parent="0" />
        <mxCell id="9r_zqkNURZiqPg7wiRaE-1" value="" style="swimlane;startSize=0;" vertex="1" parent="1">
          <mxGeometry x="225" y="160" width="200" height="200" as="geometry" />
        </mxCell>
        <mxCell id="9r_zqkNURZiqPg7wiRaE-2" value="&amp;lt;&amp;lt;component&amp;gt;&amp;gt;&lt;br&gt;&lt;br&gt;&lt;b&gt;API Management [A-1]&lt;/b&gt;" style="text;html=1;align=center;verticalAlign=middle;resizable=0;points=[];autosize=1;strokeColor=none;fillColor=none;" vertex="1" parent="9r_zqkNURZiqPg7wiRaE-1">
          <mxGeometry x="25" y="10" width="150" height="60" as="geometry" />
        </mxCell>
      </root>
    </mxGraphModel>
  </diagram>
</mxfile>
